<svg width="896" height="206" viewBox="0 0 896 206" fill="none" xmlns="http://www.w3.org/2000/svg">
<path d="M807.681 205.706C801.803 205.706 796.808 203.649 792.694 199.535C788.579 195.421 786.522 190.425 786.522 184.548V21.1584C786.522 15.281 788.579 10.2853 792.694 6.1712C796.808 2.05707 801.803 0 807.681 0H874.388C880.266 0 885.261 2.05707 889.376 6.1712C893.49 10.2853 895.547 15.281 895.547 21.1584V184.548C895.547 190.425 893.49 195.421 889.376 199.535C885.261 203.649 880.266 205.706 874.388 205.706H807.681ZM824.431 178.377H857.638C860.577 178.377 863.026 177.397 864.985 175.438C867.14 173.283 868.217 170.736 868.217 167.797V37.9087C868.217 34.9701 867.14 32.5212 864.985 30.5621C863.026 28.407 860.577 27.3295 857.638 27.3295H824.431C821.492 27.3295 818.946 28.407 816.791 30.5621C814.832 32.5212 813.852 34.9701 813.852 37.9087V167.797C813.852 170.736 814.832 173.283 816.791 175.438C818.946 177.397 821.492 178.377 824.431 178.377Z" fill="url(#paint0_linear_148_20)"/>
<path d="M731.489 205.706V27.3295H704.159L710.33 0H758.818V205.706H731.489Z" fill="url(#paint1_linear_148_20)"/>
<path d="M577.699 206L619.134 0.293794H645.876L686.724 206H659.394L651.46 167.504H612.375L605.029 206H577.699ZM617.665 140.468H646.758L632.652 67.2953L617.665 140.468Z" fill="url(#paint2_linear_148_20)"/>
<path d="M477.44 205.706C471.563 205.706 466.567 203.649 462.453 199.535C458.339 195.421 456.281 190.425 456.281 184.548V138.999L483.611 145.17V167.797C483.611 170.736 484.591 173.283 486.55 175.438C488.705 177.397 491.154 178.377 493.896 178.377H527.397C530.336 178.377 532.785 177.397 534.744 175.438C536.899 173.283 537.976 170.736 537.976 167.797V116.077C537.976 113.138 536.899 110.69 534.744 108.73C532.785 106.575 530.336 105.498 527.397 105.498H477.44C471.563 105.498 466.567 103.441 462.453 99.3267C458.339 95.2126 456.281 90.2169 456.281 84.3395V21.1584C456.281 15.281 458.339 10.2853 462.453 6.1712C466.567 2.05707 471.563 0 477.44 0H544.147C550.025 0 555.02 2.05707 559.135 6.1712C563.249 10.2853 565.306 15.281 565.306 21.1584V52.8959L537.976 46.4308V37.9087C537.976 34.9701 536.899 32.5212 534.744 30.5621C532.785 28.407 530.336 27.3295 527.397 27.3295H493.896C491.154 27.3295 488.705 28.407 486.55 30.5621C484.591 32.5212 483.611 34.9701 483.611 37.9087V67.5892C483.611 70.5278 484.591 73.0747 486.55 75.2297C488.705 77.1888 491.154 78.1684 493.896 78.1684H544.147C550.025 78.1684 555.02 80.2254 559.135 84.3395C563.249 88.4537 565.306 93.4494 565.306 99.3267V184.548C565.306 190.425 563.249 195.421 559.135 199.535C555.02 203.649 550.025 205.706 544.147 205.706H477.44Z" fill="url(#paint3_linear_148_20)"/>
<path d="M404.927 205.706V0H432.256V205.706H404.927Z" fill="url(#paint4_linear_148_20)"/>
<path d="M243.932 205.706V0H271.261L312.109 125.481L352.956 0H380.286V205.706H352.956V83.4579L325.626 167.21H298.591L271.261 83.4579V205.706H243.932Z" fill="url(#paint5_linear_148_20)"/>
<path d="M121.977 206L163.412 0.293794H190.154L231.002 206H203.672L195.738 167.504H156.654L149.307 206H121.977ZM161.943 140.468H191.036L176.93 67.2952L161.943 140.468Z" fill="url(#paint6_linear_148_20)"/>
<path d="M21.1584 205.706C15.6729 205.706 10.7751 203.649 6.46505 199.535C2.15502 195.421 0 190.425 0 184.548V21.1584C0 15.4769 2.15502 10.5792 6.46505 6.46506C10.7751 2.15502 15.6729 0 21.1584 0H87.8659C93.9392 0 98.9349 2.15502 102.853 6.46506C106.967 10.5792 109.024 15.4769 109.024 21.1584V59.3609L81.6947 65.5321V37.9087C81.6947 35.166 80.7152 32.7171 78.7561 30.5621C76.9929 28.407 74.544 27.3295 71.4094 27.3295H37.9087C35.166 27.3295 32.7171 28.407 30.5621 30.5621C28.407 32.7171 27.3295 35.166 27.3295 37.9087V167.797C27.3295 170.932 28.407 173.479 30.5621 175.438C32.7171 177.397 35.166 178.377 37.9087 178.377H71.4094C74.544 178.377 76.9929 177.397 78.7561 175.438C80.7152 173.479 81.6947 170.932 81.6947 167.797V146.345L109.024 139.88V184.548C109.024 190.425 106.967 195.421 102.853 199.535C98.9349 203.649 93.9392 205.706 87.8659 205.706H21.1584Z" fill="url(#paint7_linear_148_20)"/>
<defs>
<linearGradient id="paint0_linear_148_20" x1="841.035" y1="0" x2="841.035" y2="205.706" gradientUnits="userSpaceOnUse">
<stop stop-color="#FF0000"/>
<stop offset="1" stop-color="#680606"/>
</linearGradient>
<linearGradient id="paint1_linear_148_20" x1="731.489" y1="0" x2="731.489" y2="205.706" gradientUnits="userSpaceOnUse">
<stop stop-color="#FF0000"/>
<stop offset="1" stop-color="#680606"/>
</linearGradient>
<linearGradient id="paint2_linear_148_20" x1="292.5" y1="103" x2="755.5" y2="103" gradientUnits="userSpaceOnUse">
<stop/>
<stop offset="1" stop-color="#710606"/>
</linearGradient>
<linearGradient id="paint3_linear_148_20" x1="292.5" y1="103" x2="755.5" y2="103" gradientUnits="userSpaceOnUse">
<stop/>
<stop offset="1" stop-color="#710606"/>
</linearGradient>
<linearGradient id="paint4_linear_148_20" x1="292.5" y1="103" x2="755.5" y2="103" gradientUnits="userSpaceOnUse">
<stop/>
<stop offset="1" stop-color="#710606"/>
</linearGradient>
<linearGradient id="paint5_linear_148_20" x1="292.5" y1="103" x2="755.5" y2="103" gradientUnits="userSpaceOnUse">
<stop/>
<stop offset="1" stop-color="#710606"/>
</linearGradient>
<linearGradient id="paint6_linear_148_20" x1="292.5" y1="103" x2="755.5" y2="103" gradientUnits="userSpaceOnUse">
<stop/>
<stop offset="1" stop-color="#710606"/>
</linearGradient>
<linearGradient id="paint7_linear_148_20" x1="292.5" y1="103" x2="755.5" y2="103" gradientUnits="userSpaceOnUse">
<stop/>
<stop offset="1" stop-color="#710606"/>
</linearGradient>
</defs>
</svg>
